<?xml version="1.0" standalone="no"?>
<!DOCTYPE svg PUBLIC "-//W3C//DTD SVG 20010904//EN"
 "http://www.w3.org/TR/2001/REC-SVG-20010904/DTD/svg10.dtd">
<svg version="1.0" xmlns="http://www.w3.org/2000/svg"
 width="500.000000pt" height="210.000000pt" viewBox="0 0 240.000000 210.000000"
 preserveAspectRatio="xMidYMid meet">
<metadata>
Created by potrace 1.16, written by Peter Selinger 2001-2019
</metadata>
<g transform="translate(0.000000,210.000000) scale(0.100000,-0.100000)"
fill="#5565dd" stroke="none">
<path d="M1100 425 c0 -58 -2 -105 -5 -105 -2 0 -19 9 -37 20 -68 41 -159 19
-212 -53 -32 -43 -34 -150 -4 -202 46 -80 156 -106 229 -54 l29 20 0 -20 c0
-17 6 -21 35 -21 l35 0 0 260 0 260 -35 0 -35 0 0 -105z m-49 -145 c27 -15 49
-62 49 -106 0 -50 -53 -104 -103 -104 -70 0 -120 75 -97 145 21 63 94 95 151
65z"/>
<path d="M2320 425 l0 -105 -32 20 c-46 28 -115 26 -159 -3 -56 -38 -79 -81
-79 -149 0 -98 39 -155 121 -180 43 -12 106 0 132 27 13 12 16 12 20 -5 4 -15
14 -20 41 -20 l36 0 0 260 0 260 -40 0 -40 0 0 -105z m-27 -161 c49 -49 47
-125 -5 -169 -103 -87 -226 68 -132 167 38 38 100 40 137 2z"/>
<path d="M91 344 c-68 -35 -107 -140 -81 -219 36 -109 162 -158 243 -95 25 20
25 20 30 0 4 -15 14 -20 36 -20 l31 0 0 170 0 170 -35 0 c-24 0 -35 -5 -35
-15 0 -19 -9 -19 -32 2 -27 24 -115 28 -157 7z m148 -70 c64 -45 58 -154 -11
-190 -45 -23 -77 -17 -115 21 -33 33 -35 38 -31 87 4 40 11 57 32 75 32 28 91
31 125 7z"/>
<path d="M570 353 c-8 -3 -23 -12 -32 -21 -16 -14 -18 -13 -18 1 0 13 -9 17
-40 17 l-40 0 2 -167 3 -168 38 -3 37 -3 0 110 c0 103 1 111 26 140 32 38 81
42 110 10 16 -17 20 -42 24 -137 l5 -117 39 -3 38 -3 -4 128 c-5 143 -17 182
-68 208 -28 15 -90 19 -120 8z"/>
<path d="M1378 345 c-16 -9 -28 -20 -28 -25 0 -6 -4 -10 -10 -10 -5 0 -10 9
-10 20 0 16 -7 20 -35 20 l-35 0 0 -170 0 -170 34 0 34 0 4 104 c4 129 20 159
87 164 42 3 42 3 39 40 -3 31 -7 37 -28 39 -14 2 -37 -4 -52 -12z"/>
<path d="M1585 346 c-69 -31 -116 -121 -101 -196 26 -139 188 -194 298 -102
92 77 73 239 -35 291 -49 24 -117 27 -162 7z m138 -76 c59 -47 56 -143 -7
-181 -47 -29 -82 -25 -122 15 -29 29 -34 41 -34 81 0 38 5 52 29 76 36 36 95
40 134 9z"/>
<path d="M1910 180 l0 -170 35 0 35 0 0 170 0 170 -35 0 -35 0 0 -170z"/>
</g>
</svg>
